<?xml version="1.0" encoding="utf-8" standalone="no"?>
<!DOCTYPE svg PUBLIC "-//W3C//DTD SVG 1.1//EN"
  "http://www.w3.org/Graphics/SVG/1.1/DTD/svg11.dtd">
<!-- Created with matplotlib (https://matplotlib.org/) -->
<svg height="288pt" version="1.1" viewBox="0 0 432 288" width="432pt" xmlns="http://www.w3.org/2000/svg" xmlns:xlink="http://www.w3.org/1999/xlink">
 <metadata>
  <rdf:RDF xmlns:cc="http://creativecommons.org/ns#" xmlns:dc="http://purl.org/dc/elements/1.1/" xmlns:rdf="http://www.w3.org/1999/02/22-rdf-syntax-ns#">
   <cc:Work>
    <dc:type rdf:resource="http://purl.org/dc/dcmitype/StillImage"/>
    <dc:date>2021-05-13T14:00:44.396434</dc:date>
    <dc:format>image/svg+xml</dc:format>
    <dc:creator>
     <cc:Agent>
      <dc:title>Matplotlib v3.3.4, https://matplotlib.org/</dc:title>
     </cc:Agent>
    </dc:creator>
   </cc:Work>
  </rdf:RDF>
 </metadata>
 <defs>
  <style type="text/css">*{stroke-linecap:butt;stroke-linejoin:round;}</style>
 </defs>
 <g id="figure_1">
  <g id="patch_1">
   <path d="M 0 288 
L 432 288 
L 432 0 
L 0 0 
z
" style="fill:none;"/>
  </g>
  <g id="axes_1">
   <g id="patch_2">
    <path d="M 54 252 
L 388.8 252 
L 388.8 34.56 
L 54 34.56 
z
" style="fill:#ffffff;"/>
   </g>
   <g id="matplotlib.axis_1">
    <g id="xtick_1">
     <g id="line2d_1">
      <defs>
       <path d="M 0 0 
L 0 3.5 
" id="ma49efa5fae" style="stroke:#000000;stroke-width:0.8;"/>
      </defs>
      <g>
       <use style="stroke:#000000;stroke-width:0.8;" x="73.722506" xlink:href="#ma49efa5fae" y="252"/>
      </g>
     </g>
     <g id="text_1">
      <!-- 02-20 -->
      <g transform="translate(65.400191 284.919883)rotate(-45)scale(0.1 -0.1)">
       <defs>
        <path d="M 31.78125 66.40625 
Q 24.171875 66.40625 20.328125 58.90625 
Q 16.5 51.421875 16.5 36.375 
Q 16.5 21.390625 20.328125 13.890625 
Q 24.171875 6.390625 31.78125 6.390625 
Q 39.453125 6.390625 43.28125 13.890625 
Q 47.125 21.390625 47.125 36.375 
Q 47.125 51.421875 43.28125 58.90625 
Q 39.453125 66.40625 31.78125 66.40625 
z
M 31.78125 74.21875 
Q 44.046875 74.21875 50.515625 64.515625 
Q 56.984375 54.828125 56.984375 36.375 
Q 56.984375 17.96875 50.515625 8.265625 
Q 44.046875 -1.421875 31.78125 -1.421875 
Q 19.53125 -1.421875 13.0625 8.265625 
Q 6.59375 17.96875 6.59375 36.375 
Q 6.59375 54.828125 13.0625 64.515625 
Q 19.53125 74.21875 31.78125 74.21875 
z
" id="DejaVuSans-48"/>
        <path d="M 19.1875 8.296875 
L 53.609375 8.296875 
L 53.609375 0 
L 7.328125 0 
L 7.328125 8.296875 
Q 12.9375 14.109375 22.625 23.890625 
Q 32.328125 33.6875 34.8125 36.53125 
Q 39.546875 41.84375 41.421875 45.53125 
Q 43.3125 49.21875 43.3125 52.78125 
Q 43.3125 58.59375 39.234375 62.25 
Q 35.15625 65.921875 28.609375 65.921875 
Q 23.96875 65.921875 18.8125 64.3125 
Q 13.671875 62.703125 7.8125 59.421875 
L 7.8125 69.390625 
Q 13.765625 71.78125 18.9375 73 
Q 24.125 74.21875 28.421875 74.21875 
Q 39.75 74.21875 46.484375 68.546875 
Q 53.21875 62.890625 53.21875 53.421875 
Q 53.21875 48.921875 51.53125 44.890625 
Q 49.859375 40.875 45.40625 35.40625 
Q 44.1875 33.984375 37.640625 27.21875 
Q 31.109375 20.453125 19.1875 8.296875 
z
" id="DejaVuSans-50"/>
        <path d="M 4.890625 31.390625 
L 31.203125 31.390625 
L 31.203125 23.390625 
L 4.890625 23.390625 
z
" id="DejaVuSans-45"/>
       </defs>
       <use xlink:href="#DejaVuSans-48"/>
       <use x="63.623047" xlink:href="#DejaVuSans-50"/>
       <use x="127.246094" xlink:href="#DejaVuSans-45"/>
       <use x="163.330078" xlink:href="#DejaVuSans-50"/>
       <use x="226.953125" xlink:href="#DejaVuSans-48"/>
      </g>
     </g>
    </g>
    <g id="xtick_2">
     <g id="line2d_2">
      <g>
       <use style="stroke:#000000;stroke-width:0.8;" x="92.383279" xlink:href="#ma49efa5fae" y="252"/>
      </g>
     </g>
     <g id="text_2">
      <!-- 03-20 -->
      <g transform="translate(84.060964 284.919883)rotate(-45)scale(0.1 -0.1)">
       <defs>
        <path d="M 40.578125 39.3125 
Q 47.65625 37.796875 51.625 33 
Q 55.609375 28.21875 55.609375 21.1875 
Q 55.609375 10.40625 48.1875 4.484375 
Q 40.765625 -1.421875 27.09375 -1.421875 
Q 22.515625 -1.421875 17.65625 -0.515625 
Q 12.796875 0.390625 7.625 2.203125 
L 7.625 11.71875 
Q 11.71875 9.328125 16.59375 8.109375 
Q 21.484375 6.890625 26.8125 6.890625 
Q 36.078125 6.890625 40.9375 10.546875 
Q 45.796875 14.203125 45.796875 21.1875 
Q 45.796875 27.640625 41.28125 31.265625 
Q 36.765625 34.90625 28.71875 34.90625 
L 20.21875 34.90625 
L 20.21875 43.015625 
L 29.109375 43.015625 
Q 36.375 43.015625 40.234375 45.921875 
Q 44.09375 48.828125 44.09375 54.296875 
Q 44.09375 59.90625 40.109375 62.90625 
Q 36.140625 65.921875 28.71875 65.921875 
Q 24.65625 65.921875 20.015625 65.03125 
Q 15.375 64.15625 9.8125 62.3125 
L 9.8125 71.09375 
Q 15.4375 72.65625 20.34375 73.4375 
Q 25.25 74.21875 29.59375 74.21875 
Q 40.828125 74.21875 47.359375 69.109375 
Q 53.90625 64.015625 53.90625 55.328125 
Q 53.90625 49.265625 50.4375 45.09375 
Q 46.96875 40.921875 40.578125 39.3125 
z
" id="DejaVuSans-51"/>
       </defs>
       <use xlink:href="#DejaVuSans-48"/>
       <use x="63.623047" xlink:href="#DejaVuSans-51"/>
       <use x="127.246094" xlink:href="#DejaVuSans-45"/>
       <use x="163.330078" xlink:href="#DejaVuSans-50"/>
       <use x="226.953125" xlink:href="#DejaVuSans-48"/>
      </g>
     </g>
    </g>
    <g id="xtick_3">
     <g id="line2d_3">
      <g>
       <use style="stroke:#000000;stroke-width:0.8;" x="112.331001" xlink:href="#ma49efa5fae" y="252"/>
      </g>
     </g>
     <g id="text_3">
      <!-- 04-20 -->
      <g transform="translate(104.008686 284.919883)rotate(-45)scale(0.1 -0.1)">
       <defs>
        <path d="M 37.796875 64.3125 
L 12.890625 25.390625 
L 37.796875 25.390625 
z
M 35.203125 72.90625 
L 47.609375 72.90625 
L 47.609375 25.390625 
L 58.015625 25.390625 
L 58.015625 17.1875 
L 47.609375 17.1875 
L 47.609375 0 
L 37.796875 0 
L 37.796875 17.1875 
L 4.890625 17.1875 
L 4.890625 26.703125 
z
" id="DejaVuSans-52"/>
       </defs>
       <use xlink:href="#DejaVuSans-48"/>
       <use x="63.623047" xlink:href="#DejaVuSans-52"/>
       <use x="127.246094" xlink:href="#DejaVuSans-45"/>
       <use x="163.330078" xlink:href="#DejaVuSans-50"/>
       <use x="226.953125" xlink:href="#DejaVuSans-48"/>
      </g>
     </g>
    </g>
    <g id="xtick_4">
     <g id="line2d_4">
      <g>
       <use style="stroke:#000000;stroke-width:0.8;" x="131.635249" xlink:href="#ma49efa5fae" y="252"/>
      </g>
     </g>
     <g id="text_4">
      <!-- 05-20 -->
      <g transform="translate(123.312934 284.919883)rotate(-45)scale(0.1 -0.1)">
       <defs>
        <path d="M 10.796875 72.90625 
L 49.515625 72.90625 
L 49.515625 64.59375 
L 19.828125 64.59375 
L 19.828125 46.734375 
Q 21.96875 47.46875 24.109375 47.828125 
Q 26.265625 48.1875 28.421875 48.1875 
Q 40.625 48.1875 47.75 41.5 
Q 54.890625 34.8125 54.890625 23.390625 
Q 54.890625 11.625 47.5625 5.09375 
Q 40.234375 -1.421875 26.90625 -1.421875 
Q 22.3125 -1.421875 17.546875 -0.640625 
Q 12.796875 0.140625 7.71875 1.703125 
L 7.71875 11.625 
Q 12.109375 9.234375 16.796875 8.0625 
Q 21.484375 6.890625 26.703125 6.890625 
Q 35.15625 6.890625 40.078125 11.328125 
Q 45.015625 15.765625 45.015625 23.390625 
Q 45.015625 31 40.078125 35.4375 
Q 35.15625 39.890625 26.703125 39.890625 
Q 22.75 39.890625 18.8125 39.015625 
Q 14.890625 38.140625 10.796875 36.28125 
z
" id="DejaVuSans-53"/>
       </defs>
       <use xlink:href="#DejaVuSans-48"/>
       <use x="63.623047" xlink:href="#DejaVuSans-53"/>
       <use x="127.246094" xlink:href="#DejaVuSans-45"/>
       <use x="163.330078" xlink:href="#DejaVuSans-50"/>
       <use x="226.953125" xlink:href="#DejaVuSans-48"/>
      </g>
     </g>
    </g>
    <g id="xtick_5">
     <g id="line2d_5">
      <g>
       <use style="stroke:#000000;stroke-width:0.8;" x="151.582971" xlink:href="#ma49efa5fae" y="252"/>
      </g>
     </g>
     <g id="text_5">
      <!-- 06-20 -->
      <g transform="translate(143.260656 284.919883)rotate(-45)scale(0.1 -0.1)">
       <defs>
        <path d="M 33.015625 40.375 
Q 26.375 40.375 22.484375 35.828125 
Q 18.609375 31.296875 18.609375 23.390625 
Q 18.609375 15.53125 22.484375 10.953125 
Q 26.375 6.390625 33.015625 6.390625 
Q 39.65625 6.390625 43.53125 10.953125 
Q 47.40625 15.53125 47.40625 23.390625 
Q 47.40625 31.296875 43.53125 35.828125 
Q 39.65625 40.375 33.015625 40.375 
z
M 52.59375 71.296875 
L 52.59375 62.3125 
Q 48.875 64.0625 45.09375 64.984375 
Q 41.3125 65.921875 37.59375 65.921875 
Q 27.828125 65.921875 22.671875 59.328125 
Q 17.53125 52.734375 16.796875 39.40625 
Q 19.671875 43.65625 24.015625 45.921875 
Q 28.375 48.1875 33.59375 48.1875 
Q 44.578125 48.1875 50.953125 41.515625 
Q 57.328125 34.859375 57.328125 23.390625 
Q 57.328125 12.15625 50.6875 5.359375 
Q 44.046875 -1.421875 33.015625 -1.421875 
Q 20.359375 -1.421875 13.671875 8.265625 
Q 6.984375 17.96875 6.984375 36.375 
Q 6.984375 53.65625 15.1875 63.9375 
Q 23.390625 74.21875 37.203125 74.21875 
Q 40.921875 74.21875 44.703125 73.484375 
Q 48.484375 72.75 52.59375 71.296875 
z
" id="DejaVuSans-54"/>
       </defs>
       <use xlink:href="#DejaVuSans-48"/>
       <use x="63.623047" xlink:href="#DejaVuSans-54"/>
       <use x="127.246094" xlink:href="#DejaVuSans-45"/>
       <use x="163.330078" xlink:href="#DejaVuSans-50"/>
       <use x="226.953125" xlink:href="#DejaVuSans-48"/>
      </g>
     </g>
    </g>
    <g id="xtick_6">
     <g id="line2d_6">
      <g>
       <use style="stroke:#000000;stroke-width:0.8;" x="170.887219" xlink:href="#ma49efa5fae" y="252"/>
      </g>
     </g>
     <g id="text_6">
      <!-- 07-20 -->
      <g transform="translate(162.564904 284.919883)rotate(-45)scale(0.1 -0.1)">
       <defs>
        <path d="M 8.203125 72.90625 
L 55.078125 72.90625 
L 55.078125 68.703125 
L 28.609375 0 
L 18.3125 0 
L 43.21875 64.59375 
L 8.203125 64.59375 
z
" id="DejaVuSans-55"/>
       </defs>
       <use xlink:href="#DejaVuSans-48"/>
       <use x="63.623047" xlink:href="#DejaVuSans-55"/>
       <use x="127.246094" xlink:href="#DejaVuSans-45"/>
       <use x="163.330078" xlink:href="#DejaVuSans-50"/>
       <use x="226.953125" xlink:href="#DejaVuSans-48"/>
      </g>
     </g>
    </g>
    <g id="xtick_7">
     <g id="line2d_7">
      <g>
       <use style="stroke:#000000;stroke-width:0.8;" x="190.834941" xlink:href="#ma49efa5fae" y="252"/>
      </g>
     </g>
     <g id="text_7">
      <!-- 08-20 -->
      <g transform="translate(182.512626 284.919883)rotate(-45)scale(0.1 -0.1)">
       <defs>
        <path d="M 31.78125 34.625 
Q 24.75 34.625 20.71875 30.859375 
Q 16.703125 27.09375 16.703125 20.515625 
Q 16.703125 13.921875 20.71875 10.15625 
Q 24.75 6.390625 31.78125 6.390625 
Q 38.8125 6.390625 42.859375 10.171875 
Q 46.921875 13.96875 46.921875 20.515625 
Q 46.921875 27.09375 42.890625 30.859375 
Q 38.875 34.625 31.78125 34.625 
z
M 21.921875 38.8125 
Q 15.578125 40.375 12.03125 44.71875 
Q 8.5 49.078125 8.5 55.328125 
Q 8.5 64.0625 14.71875 69.140625 
Q 20.953125 74.21875 31.78125 74.21875 
Q 42.671875 74.21875 48.875 69.140625 
Q 55.078125 64.0625 55.078125 55.328125 
Q 55.078125 49.078125 51.53125 44.71875 
Q 48 40.375 41.703125 38.8125 
Q 48.828125 37.15625 52.796875 32.3125 
Q 56.78125 27.484375 56.78125 20.515625 
Q 56.78125 9.90625 50.3125 4.234375 
Q 43.84375 -1.421875 31.78125 -1.421875 
Q 19.734375 -1.421875 13.25 4.234375 
Q 6.78125 9.90625 6.78125 20.515625 
Q 6.78125 27.484375 10.78125 32.3125 
Q 14.796875 37.15625 21.921875 38.8125 
z
M 18.3125 54.390625 
Q 18.3125 48.734375 21.84375 45.5625 
Q 25.390625 42.390625 31.78125 42.390625 
Q 38.140625 42.390625 41.71875 45.5625 
Q 45.3125 48.734375 45.3125 54.390625 
Q 45.3125 60.0625 41.71875 63.234375 
Q 38.140625 66.40625 31.78125 66.40625 
Q 25.390625 66.40625 21.84375 63.234375 
Q 18.3125 60.0625 18.3125 54.390625 
z
" id="DejaVuSans-56"/>
       </defs>
       <use xlink:href="#DejaVuSans-48"/>
       <use x="63.623047" xlink:href="#DejaVuSans-56"/>
       <use x="127.246094" xlink:href="#DejaVuSans-45"/>
       <use x="163.330078" xlink:href="#DejaVuSans-50"/>
       <use x="226.953125" xlink:href="#DejaVuSans-48"/>
      </g>
     </g>
    </g>
    <g id="xtick_8">
     <g id="line2d_8">
      <g>
       <use style="stroke:#000000;stroke-width:0.8;" x="210.782664" xlink:href="#ma49efa5fae" y="252"/>
      </g>
     </g>
     <g id="text_8">
      <!-- 09-20 -->
      <g transform="translate(202.460348 284.919883)rotate(-45)scale(0.1 -0.1)">
       <defs>
        <path d="M 10.984375 1.515625 
L 10.984375 10.5 
Q 14.703125 8.734375 18.5 7.8125 
Q 22.3125 6.890625 25.984375 6.890625 
Q 35.75 6.890625 40.890625 13.453125 
Q 46.046875 20.015625 46.78125 33.40625 
Q 43.953125 29.203125 39.59375 26.953125 
Q 35.25 24.703125 29.984375 24.703125 
Q 19.046875 24.703125 12.671875 31.3125 
Q 6.296875 37.9375 6.296875 49.421875 
Q 6.296875 60.640625 12.9375 67.421875 
Q 19.578125 74.21875 30.609375 74.21875 
Q 43.265625 74.21875 49.921875 64.515625 
Q 56.59375 54.828125 56.59375 36.375 
Q 56.59375 19.140625 48.40625 8.859375 
Q 40.234375 -1.421875 26.421875 -1.421875 
Q 22.703125 -1.421875 18.890625 -0.6875 
Q 15.09375 0.046875 10.984375 1.515625 
z
M 30.609375 32.421875 
Q 37.25 32.421875 41.125 36.953125 
Q 45.015625 41.5 45.015625 49.421875 
Q 45.015625 57.28125 41.125 61.84375 
Q 37.25 66.40625 30.609375 66.40625 
Q 23.96875 66.40625 20.09375 61.84375 
Q 16.21875 57.28125 16.21875 49.421875 
Q 16.21875 41.5 20.09375 36.953125 
Q 23.96875 32.421875 30.609375 32.421875 
z
" id="DejaVuSans-57"/>
       </defs>
       <use xlink:href="#DejaVuSans-48"/>
       <use x="63.623047" xlink:href="#DejaVuSans-57"/>
       <use x="127.246094" xlink:href="#DejaVuSans-45"/>
       <use x="163.330078" xlink:href="#DejaVuSans-50"/>
       <use x="226.953125" xlink:href="#DejaVuSans-48"/>
      </g>
     </g>
    </g>
    <g id="xtick_9">
     <g id="line2d_9">
      <g>
       <use style="stroke:#000000;stroke-width:0.8;" x="230.086911" xlink:href="#ma49efa5fae" y="252"/>
      </g>
     </g>
     <g id="text_9">
      <!-- 10-20 -->
      <g transform="translate(221.764596 284.919883)rotate(-45)scale(0.1 -0.1)">
       <defs>
        <path d="M 12.40625 8.296875 
L 28.515625 8.296875 
L 28.515625 63.921875 
L 10.984375 60.40625 
L 10.984375 69.390625 
L 28.421875 72.90625 
L 38.28125 72.90625 
L 38.28125 8.296875 
L 54.390625 8.296875 
L 54.390625 0 
L 12.40625 0 
z
" id="DejaVuSans-49"/>
       </defs>
       <use xlink:href="#DejaVuSans-49"/>
       <use x="63.623047" xlink:href="#DejaVuSans-48"/>
       <use x="127.246094" xlink:href="#DejaVuSans-45"/>
       <use x="163.330078" xlink:href="#DejaVuSans-50"/>
       <use x="226.953125" xlink:href="#DejaVuSans-48"/>
      </g>
     </g>
    </g>
    <g id="xtick_10">
     <g id="line2d_10">
      <g>
       <use style="stroke:#000000;stroke-width:0.8;" x="250.034634" xlink:href="#ma49efa5fae" y="252"/>
      </g>
     </g>
     <g id="text_10">
      <!-- 11-20 -->
      <g transform="translate(241.712319 284.919883)rotate(-45)scale(0.1 -0.1)">
       <use xlink:href="#DejaVuSans-49"/>
       <use x="63.623047" xlink:href="#DejaVuSans-49"/>
       <use x="127.246094" xlink:href="#DejaVuSans-45"/>
       <use x="163.330078" xlink:href="#DejaVuSans-50"/>
       <use x="226.953125" xlink:href="#DejaVuSans-48"/>
      </g>
     </g>
    </g>
    <g id="xtick_11">
     <g id="line2d_11">
      <g>
       <use style="stroke:#000000;stroke-width:0.8;" x="269.338881" xlink:href="#ma49efa5fae" y="252"/>
      </g>
     </g>
     <g id="text_11">
      <!-- 12-20 -->
      <g transform="translate(261.016566 284.919883)rotate(-45)scale(0.1 -0.1)">
       <use xlink:href="#DejaVuSans-49"/>
       <use x="63.623047" xlink:href="#DejaVuSans-50"/>
       <use x="127.246094" xlink:href="#DejaVuSans-45"/>
       <use x="163.330078" xlink:href="#DejaVuSans-50"/>
       <use x="226.953125" xlink:href="#DejaVuSans-48"/>
      </g>
     </g>
    </g>
    <g id="xtick_12">
     <g id="line2d_12">
      <g>
       <use style="stroke:#000000;stroke-width:0.8;" x="289.286604" xlink:href="#ma49efa5fae" y="252"/>
      </g>
     </g>
     <g id="text_12">
      <!-- 01-21 -->
      <g transform="translate(280.964289 284.919883)rotate(-45)scale(0.1 -0.1)">
       <use xlink:href="#DejaVuSans-48"/>
       <use x="63.623047" xlink:href="#DejaVuSans-49"/>
       <use x="127.246094" xlink:href="#DejaVuSans-45"/>
       <use x="163.330078" xlink:href="#DejaVuSans-50"/>
       <use x="226.953125" xlink:href="#DejaVuSans-49"/>
      </g>
     </g>
    </g>
    <g id="xtick_13">
     <g id="line2d_13">
      <g>
       <use style="stroke:#000000;stroke-width:0.8;" x="309.234326" xlink:href="#ma49efa5fae" y="252"/>
      </g>
     </g>
     <g id="text_13">
      <!-- 02-21 -->
      <g transform="translate(300.912011 284.919883)rotate(-45)scale(0.1 -0.1)">
       <use xlink:href="#DejaVuSans-48"/>
       <use x="63.623047" xlink:href="#DejaVuSans-50"/>
       <use x="127.246094" xlink:href="#DejaVuSans-45"/>
       <use x="163.330078" xlink:href="#DejaVuSans-50"/>
       <use x="226.953125" xlink:href="#DejaVuSans-49"/>
      </g>
     </g>
    </g>
    <g id="xtick_14">
     <g id="line2d_14">
      <g>
       <use style="stroke:#000000;stroke-width:0.8;" x="327.251624" xlink:href="#ma49efa5fae" y="252"/>
      </g>
     </g>
     <g id="text_14">
      <!-- 03-21 -->
      <g transform="translate(318.929309 284.919883)rotate(-45)scale(0.1 -0.1)">
       <use xlink:href="#DejaVuSans-48"/>
       <use x="63.623047" xlink:href="#DejaVuSans-51"/>
       <use x="127.246094" xlink:href="#DejaVuSans-45"/>
       <use x="163.330078" xlink:href="#DejaVuSans-50"/>
       <use x="226.953125" xlink:href="#DejaVuSans-49"/>
      </g>
     </g>
    </g>
    <g id="xtick_15">
     <g id="line2d_15">
      <g>
       <use style="stroke:#000000;stroke-width:0.8;" x="347.199347" xlink:href="#ma49efa5fae" y="252"/>
      </g>
     </g>
     <g id="text_15">
      <!-- 04-21 -->
      <g transform="translate(338.877031 284.919883)rotate(-45)scale(0.1 -0.1)">
       <use xlink:href="#DejaVuSans-48"/>
       <use x="63.623047" xlink:href="#DejaVuSans-52"/>
       <use x="127.246094" xlink:href="#DejaVuSans-45"/>
       <use x="163.330078" xlink:href="#DejaVuSans-50"/>
       <use x="226.953125" xlink:href="#DejaVuSans-49"/>
      </g>
     </g>
    </g>
    <g id="xtick_16">
     <g id="line2d_16">
      <g>
       <use style="stroke:#000000;stroke-width:0.8;" x="366.503594" xlink:href="#ma49efa5fae" y="252"/>
      </g>
     </g>
     <g id="text_16">
      <!-- 05-21 -->
      <g transform="translate(358.181279 284.919883)rotate(-45)scale(0.1 -0.1)">
       <use xlink:href="#DejaVuSans-48"/>
       <use x="63.623047" xlink:href="#DejaVuSans-53"/>
       <use x="127.246094" xlink:href="#DejaVuSans-45"/>
       <use x="163.330078" xlink:href="#DejaVuSans-50"/>
       <use x="226.953125" xlink:href="#DejaVuSans-49"/>
      </g>
     </g>
    </g>
    <g id="xtick_17">
     <g id="line2d_17">
      <g>
       <use style="stroke:#000000;stroke-width:0.8;" x="386.451317" xlink:href="#ma49efa5fae" y="252"/>
      </g>
     </g>
     <g id="text_17">
      <!-- 06-21 -->
      <g transform="translate(378.129001 284.919883)rotate(-45)scale(0.1 -0.1)">
       <use xlink:href="#DejaVuSans-48"/>
       <use x="63.623047" xlink:href="#DejaVuSans-54"/>
       <use x="127.246094" xlink:href="#DejaVuSans-45"/>
       <use x="163.330078" xlink:href="#DejaVuSans-50"/>
       <use x="226.953125" xlink:href="#DejaVuSans-49"/>
      </g>
     </g>
    </g>
    <g id="text_18">
     <!-- Date -->
     <g transform="translate(209.449219 297.988882)scale(0.1 -0.1)">
      <defs>
       <path d="M 19.671875 64.796875 
L 19.671875 8.109375 
L 31.59375 8.109375 
Q 46.6875 8.109375 53.6875 14.9375 
Q 60.6875 21.78125 60.6875 36.53125 
Q 60.6875 51.171875 53.6875 57.984375 
Q 46.6875 64.796875 31.59375 64.796875 
z
M 9.8125 72.90625 
L 30.078125 72.90625 
Q 51.265625 72.90625 61.171875 64.09375 
Q 71.09375 55.28125 71.09375 36.53125 
Q 71.09375 17.671875 61.125 8.828125 
Q 51.171875 0 30.078125 0 
L 9.8125 0 
z
" id="DejaVuSans-68"/>
       <path d="M 34.28125 27.484375 
Q 23.390625 27.484375 19.1875 25 
Q 14.984375 22.515625 14.984375 16.5 
Q 14.984375 11.71875 18.140625 8.90625 
Q 21.296875 6.109375 26.703125 6.109375 
Q 34.1875 6.109375 38.703125 11.40625 
Q 43.21875 16.703125 43.21875 25.484375 
L 43.21875 27.484375 
z
M 52.203125 31.203125 
L 52.203125 0 
L 43.21875 0 
L 43.21875 8.296875 
Q 40.140625 3.328125 35.546875 0.953125 
Q 30.953125 -1.421875 24.3125 -1.421875 
Q 15.921875 -1.421875 10.953125 3.296875 
Q 6 8.015625 6 15.921875 
Q 6 25.140625 12.171875 29.828125 
Q 18.359375 34.515625 30.609375 34.515625 
L 43.21875 34.515625 
L 43.21875 35.40625 
Q 43.21875 41.609375 39.140625 45 
Q 35.0625 48.390625 27.6875 48.390625 
Q 23 48.390625 18.546875 47.265625 
Q 14.109375 46.140625 10.015625 43.890625 
L 10.015625 52.203125 
Q 14.9375 54.109375 19.578125 55.046875 
Q 24.21875 56 28.609375 56 
Q 40.484375 56 46.34375 49.84375 
Q 52.203125 43.703125 52.203125 31.203125 
z
" id="DejaVuSans-97"/>
       <path d="M 18.3125 70.21875 
L 18.3125 54.6875 
L 36.8125 54.6875 
L 36.8125 47.703125 
L 18.3125 47.703125 
L 18.3125 18.015625 
Q 18.3125 11.328125 20.140625 9.421875 
Q 21.96875 7.515625 27.59375 7.515625 
L 36.8125 7.515625 
L 36.8125 0 
L 27.59375 0 
Q 17.1875 0 13.234375 3.875 
Q 9.28125 7.765625 9.28125 18.015625 
L 9.28125 47.703125 
L 2.6875 47.703125 
L 2.6875 54.6875 
L 9.28125 54.6875 
L 9.28125 70.21875 
z
" id="DejaVuSans-116"/>
       <path d="M 56.203125 29.59375 
L 56.203125 25.203125 
L 14.890625 25.203125 
Q 15.484375 15.921875 20.484375 11.0625 
Q 25.484375 6.203125 34.421875 6.203125 
Q 39.59375 6.203125 44.453125 7.46875 
Q 49.3125 8.734375 54.109375 11.28125 
L 54.109375 2.78125 
Q 49.265625 0.734375 44.1875 -0.34375 
Q 39.109375 -1.421875 33.890625 -1.421875 
Q 20.796875 -1.421875 13.15625 6.1875 
Q 5.515625 13.8125 5.515625 26.8125 
Q 5.515625 40.234375 12.765625 48.109375 
Q 20.015625 56 32.328125 56 
Q 43.359375 56 49.78125 48.890625 
Q 56.203125 41.796875 56.203125 29.59375 
z
M 47.21875 32.234375 
Q 47.125 39.59375 43.09375 43.984375 
Q 39.0625 48.390625 32.421875 48.390625 
Q 24.90625 48.390625 20.390625 44.140625 
Q 15.875 39.890625 15.1875 32.171875 
z
" id="DejaVuSans-101"/>
      </defs>
      <use xlink:href="#DejaVuSans-68"/>
      <use x="77.001953" xlink:href="#DejaVuSans-97"/>
      <use x="138.28125" xlink:href="#DejaVuSans-116"/>
      <use x="177.490234" xlink:href="#DejaVuSans-101"/>
     </g>
    </g>
   </g>
   <g id="matplotlib.axis_2">
    <g id="ytick_1">
     <g id="line2d_18">
      <defs>
       <path d="M 0 0 
L -3.5 0 
" id="m24ba0bb8e6" style="stroke:#000000;stroke-width:0.8;"/>
      </defs>
      <g>
       <use style="stroke:#000000;stroke-width:0.8;" x="54" xlink:href="#m24ba0bb8e6" y="242.116364"/>
      </g>
     </g>
     <g id="text_19">
      <!-- 0 -->
      <g transform="translate(40.6375 245.915582)scale(0.1 -0.1)">
       <use xlink:href="#DejaVuSans-48"/>
      </g>
     </g>
    </g>
    <g id="ytick_2">
     <g id="line2d_19">
      <g>
       <use style="stroke:#000000;stroke-width:0.8;" x="54" xlink:href="#m24ba0bb8e6" y="207.219598"/>
      </g>
     </g>
     <g id="text_20">
      <!-- 20 -->
      <g transform="translate(34.275 211.018817)scale(0.1 -0.1)">
       <use xlink:href="#DejaVuSans-50"/>
       <use x="63.623047" xlink:href="#DejaVuSans-48"/>
      </g>
     </g>
    </g>
    <g id="ytick_3">
     <g id="line2d_20">
      <g>
       <use style="stroke:#000000;stroke-width:0.8;" x="54" xlink:href="#m24ba0bb8e6" y="172.322833"/>
      </g>
     </g>
     <g id="text_21">
      <!-- 40 -->
      <g transform="translate(34.275 176.122052)scale(0.1 -0.1)">
       <use xlink:href="#DejaVuSans-52"/>
       <use x="63.623047" xlink:href="#DejaVuSans-48"/>
      </g>
     </g>
    </g>
    <g id="ytick_4">
     <g id="line2d_21">
      <g>
       <use style="stroke:#000000;stroke-width:0.8;" x="54" xlink:href="#m24ba0bb8e6" y="137.426068"/>
      </g>
     </g>
     <g id="text_22">
      <!-- 60 -->
      <g transform="translate(34.275 141.225286)scale(0.1 -0.1)">
       <use xlink:href="#DejaVuSans-54"/>
       <use x="63.623047" xlink:href="#DejaVuSans-48"/>
      </g>
     </g>
    </g>
    <g id="ytick_5">
     <g id="line2d_22">
      <g>
       <use style="stroke:#000000;stroke-width:0.8;" x="54" xlink:href="#m24ba0bb8e6" y="102.529302"/>
      </g>
     </g>
     <g id="text_23">
      <!-- 80 -->
      <g transform="translate(34.275 106.328521)scale(0.1 -0.1)">
       <use xlink:href="#DejaVuSans-56"/>
       <use x="63.623047" xlink:href="#DejaVuSans-48"/>
      </g>
     </g>
    </g>
    <g id="ytick_6">
     <g id="line2d_23">
      <g>
       <use style="stroke:#000000;stroke-width:0.8;" x="54" xlink:href="#m24ba0bb8e6" y="67.632537"/>
      </g>
     </g>
     <g id="text_24">
      <!-- 100 -->
      <g transform="translate(27.9125 71.431756)scale(0.1 -0.1)">
       <use xlink:href="#DejaVuSans-49"/>
       <use x="63.623047" xlink:href="#DejaVuSans-48"/>
       <use x="127.246094" xlink:href="#DejaVuSans-48"/>
      </g>
     </g>
    </g>
    <g id="text_25">
     <!-- Covid infections per 100k -->
     <g transform="translate(21.832812 207.191719)rotate(-90)scale(0.1 -0.1)">
      <defs>
       <path d="M 64.40625 67.28125 
L 64.40625 56.890625 
Q 59.421875 61.53125 53.78125 63.8125 
Q 48.140625 66.109375 41.796875 66.109375 
Q 29.296875 66.109375 22.65625 58.46875 
Q 16.015625 50.828125 16.015625 36.375 
Q 16.015625 21.96875 22.65625 14.328125 
Q 29.296875 6.6875 41.796875 6.6875 
Q 48.140625 6.6875 53.78125 8.984375 
Q 59.421875 11.28125 64.40625 15.921875 
L 64.40625 5.609375 
Q 59.234375 2.09375 53.4375 0.328125 
Q 47.65625 -1.421875 41.21875 -1.421875 
Q 24.65625 -1.421875 15.125 8.703125 
Q 5.609375 18.84375 5.609375 36.375 
Q 5.609375 53.953125 15.125 64.078125 
Q 24.65625 74.21875 41.21875 74.21875 
Q 47.75 74.21875 53.53125 72.484375 
Q 59.328125 70.75 64.40625 67.28125 
z
" id="DejaVuSans-67"/>
       <path d="M 30.609375 48.390625 
Q 23.390625 48.390625 19.1875 42.75 
Q 14.984375 37.109375 14.984375 27.296875 
Q 14.984375 17.484375 19.15625 11.84375 
Q 23.34375 6.203125 30.609375 6.203125 
Q 37.796875 6.203125 41.984375 11.859375 
Q 46.1875 17.53125 46.1875 27.296875 
Q 46.1875 37.015625 41.984375 42.703125 
Q 37.796875 48.390625 30.609375 48.390625 
z
M 30.609375 56 
Q 42.328125 56 49.015625 48.375 
Q 55.71875 40.765625 55.71875 27.296875 
Q 55.71875 13.875 49.015625 6.21875 
Q 42.328125 -1.421875 30.609375 -1.421875 
Q 18.84375 -1.421875 12.171875 6.21875 
Q 5.515625 13.875 5.515625 27.296875 
Q 5.515625 40.765625 12.171875 48.375 
Q 18.84375 56 30.609375 56 
z
" id="DejaVuSans-111"/>
       <path d="M 2.984375 54.6875 
L 12.5 54.6875 
L 29.59375 8.796875 
L 46.6875 54.6875 
L 56.203125 54.6875 
L 35.6875 0 
L 23.484375 0 
z
" id="DejaVuSans-118"/>
       <path d="M 9.421875 54.6875 
L 18.40625 54.6875 
L 18.40625 0 
L 9.421875 0 
z
M 9.421875 75.984375 
L 18.40625 75.984375 
L 18.40625 64.59375 
L 9.421875 64.59375 
z
" id="DejaVuSans-105"/>
       <path d="M 45.40625 46.390625 
L 45.40625 75.984375 
L 54.390625 75.984375 
L 54.390625 0 
L 45.40625 0 
L 45.40625 8.203125 
Q 42.578125 3.328125 38.25 0.953125 
Q 33.9375 -1.421875 27.875 -1.421875 
Q 17.96875 -1.421875 11.734375 6.484375 
Q 5.515625 14.40625 5.515625 27.296875 
Q 5.515625 40.1875 11.734375 48.09375 
Q 17.96875 56 27.875 56 
Q 33.9375 56 38.25 53.625 
Q 42.578125 51.265625 45.40625 46.390625 
z
M 14.796875 27.296875 
Q 14.796875 17.390625 18.875 11.75 
Q 22.953125 6.109375 30.078125 6.109375 
Q 37.203125 6.109375 41.296875 11.75 
Q 45.40625 17.390625 45.40625 27.296875 
Q 45.40625 37.203125 41.296875 42.84375 
Q 37.203125 48.484375 30.078125 48.484375 
Q 22.953125 48.484375 18.875 42.84375 
Q 14.796875 37.203125 14.796875 27.296875 
z
" id="DejaVuSans-100"/>
       <path id="DejaVuSans-32"/>
       <path d="M 54.890625 33.015625 
L 54.890625 0 
L 45.90625 0 
L 45.90625 32.71875 
Q 45.90625 40.484375 42.875 44.328125 
Q 39.84375 48.1875 33.796875 48.1875 
Q 26.515625 48.1875 22.3125 43.546875 
Q 18.109375 38.921875 18.109375 30.90625 
L 18.109375 0 
L 9.078125 0 
L 9.078125 54.6875 
L 18.109375 54.6875 
L 18.109375 46.1875 
Q 21.34375 51.125 25.703125 53.5625 
Q 30.078125 56 35.796875 56 
Q 45.21875 56 50.046875 50.171875 
Q 54.890625 44.34375 54.890625 33.015625 
z
" id="DejaVuSans-110"/>
       <path d="M 37.109375 75.984375 
L 37.109375 68.5 
L 28.515625 68.5 
Q 23.6875 68.5 21.796875 66.546875 
Q 19.921875 64.59375 19.921875 59.515625 
L 19.921875 54.6875 
L 34.71875 54.6875 
L 34.71875 47.703125 
L 19.921875 47.703125 
L 19.921875 0 
L 10.890625 0 
L 10.890625 47.703125 
L 2.296875 47.703125 
L 2.296875 54.6875 
L 10.890625 54.6875 
L 10.890625 58.5 
Q 10.890625 67.625 15.140625 71.796875 
Q 19.390625 75.984375 28.609375 75.984375 
z
" id="DejaVuSans-102"/>
       <path d="M 48.78125 52.59375 
L 48.78125 44.1875 
Q 44.96875 46.296875 41.140625 47.34375 
Q 37.3125 48.390625 33.40625 48.390625 
Q 24.65625 48.390625 19.8125 42.84375 
Q 14.984375 37.3125 14.984375 27.296875 
Q 14.984375 17.28125 19.8125 11.734375 
Q 24.65625 6.203125 33.40625 6.203125 
Q 37.3125 6.203125 41.140625 7.25 
Q 44.96875 8.296875 48.78125 10.40625 
L 48.78125 2.09375 
Q 45.015625 0.34375 40.984375 -0.53125 
Q 36.96875 -1.421875 32.421875 -1.421875 
Q 20.0625 -1.421875 12.78125 6.34375 
Q 5.515625 14.109375 5.515625 27.296875 
Q 5.515625 40.671875 12.859375 48.328125 
Q 20.21875 56 33.015625 56 
Q 37.15625 56 41.109375 55.140625 
Q 45.0625 54.296875 48.78125 52.59375 
z
" id="DejaVuSans-99"/>
       <path d="M 44.28125 53.078125 
L 44.28125 44.578125 
Q 40.484375 46.53125 36.375 47.5 
Q 32.28125 48.484375 27.875 48.484375 
Q 21.1875 48.484375 17.84375 46.4375 
Q 14.5 44.390625 14.5 40.28125 
Q 14.5 37.15625 16.890625 35.375 
Q 19.28125 33.59375 26.515625 31.984375 
L 29.59375 31.296875 
Q 39.15625 29.25 43.1875 25.515625 
Q 47.21875 21.78125 47.21875 15.09375 
Q 47.21875 7.46875 41.1875 3.015625 
Q 35.15625 -1.421875 24.609375 -1.421875 
Q 20.21875 -1.421875 15.453125 -0.5625 
Q 10.6875 0.296875 5.421875 2 
L 5.421875 11.28125 
Q 10.40625 8.6875 15.234375 7.390625 
Q 20.0625 6.109375 24.8125 6.109375 
Q 31.15625 6.109375 34.5625 8.28125 
Q 37.984375 10.453125 37.984375 14.40625 
Q 37.984375 18.0625 35.515625 20.015625 
Q 33.0625 21.96875 24.703125 23.78125 
L 21.578125 24.515625 
Q 13.234375 26.265625 9.515625 29.90625 
Q 5.8125 33.546875 5.8125 39.890625 
Q 5.8125 47.609375 11.28125 51.796875 
Q 16.75 56 26.8125 56 
Q 31.78125 56 36.171875 55.265625 
Q 40.578125 54.546875 44.28125 53.078125 
z
" id="DejaVuSans-115"/>
       <path d="M 18.109375 8.203125 
L 18.109375 -20.796875 
L 9.078125 -20.796875 
L 9.078125 54.6875 
L 18.109375 54.6875 
L 18.109375 46.390625 
Q 20.953125 51.265625 25.265625 53.625 
Q 29.59375 56 35.59375 56 
Q 45.5625 56 51.78125 48.09375 
Q 58.015625 40.1875 58.015625 27.296875 
Q 58.015625 14.40625 51.78125 6.484375 
Q 45.5625 -1.421875 35.59375 -1.421875 
Q 29.59375 -1.421875 25.265625 0.953125 
Q 20.953125 3.328125 18.109375 8.203125 
z
M 48.6875 27.296875 
Q 48.6875 37.203125 44.609375 42.84375 
Q 40.53125 48.484375 33.40625 48.484375 
Q 26.265625 48.484375 22.1875 42.84375 
Q 18.109375 37.203125 18.109375 27.296875 
Q 18.109375 17.390625 22.1875 11.75 
Q 26.265625 6.109375 33.40625 6.109375 
Q 40.53125 6.109375 44.609375 11.75 
Q 48.6875 17.390625 48.6875 27.296875 
z
" id="DejaVuSans-112"/>
       <path d="M 41.109375 46.296875 
Q 39.59375 47.171875 37.8125 47.578125 
Q 36.03125 48 33.890625 48 
Q 26.265625 48 22.1875 43.046875 
Q 18.109375 38.09375 18.109375 28.8125 
L 18.109375 0 
L 9.078125 0 
L 9.078125 54.6875 
L 18.109375 54.6875 
L 18.109375 46.1875 
Q 20.953125 51.171875 25.484375 53.578125 
Q 30.03125 56 36.53125 56 
Q 37.453125 56 38.578125 55.875 
Q 39.703125 55.765625 41.0625 55.515625 
z
" id="DejaVuSans-114"/>
       <path d="M 9.078125 75.984375 
L 18.109375 75.984375 
L 18.109375 31.109375 
L 44.921875 54.6875 
L 56.390625 54.6875 
L 27.390625 29.109375 
L 57.625 0 
L 45.90625 0 
L 18.109375 26.703125 
L 18.109375 0 
L 9.078125 0 
z
" id="DejaVuSans-107"/>
      </defs>
      <use xlink:href="#DejaVuSans-67"/>
      <use x="69.824219" xlink:href="#DejaVuSans-111"/>
      <use x="131.005859" xlink:href="#DejaVuSans-118"/>
      <use x="190.185547" xlink:href="#DejaVuSans-105"/>
      <use x="217.96875" xlink:href="#DejaVuSans-100"/>
      <use x="281.445312" xlink:href="#DejaVuSans-32"/>
      <use x="313.232422" xlink:href="#DejaVuSans-105"/>
      <use x="341.015625" xlink:href="#DejaVuSans-110"/>
      <use x="404.394531" xlink:href="#DejaVuSans-102"/>
      <use x="439.599609" xlink:href="#DejaVuSans-101"/>
      <use x="501.123047" xlink:href="#DejaVuSans-99"/>
      <use x="556.103516" xlink:href="#DejaVuSans-116"/>
      <use x="595.3125" xlink:href="#DejaVuSans-105"/>
      <use x="623.095703" xlink:href="#DejaVuSans-111"/>
      <use x="684.277344" xlink:href="#DejaVuSans-110"/>
      <use x="747.65625" xlink:href="#DejaVuSans-115"/>
      <use x="799.755859" xlink:href="#DejaVuSans-32"/>
      <use x="831.542969" xlink:href="#DejaVuSans-112"/>
      <use x="895.019531" xlink:href="#DejaVuSans-101"/>
      <use x="956.542969" xlink:href="#DejaVuSans-114"/>
      <use x="997.65625" xlink:href="#DejaVuSans-32"/>
      <use x="1029.443359" xlink:href="#DejaVuSans-49"/>
      <use x="1093.066406" xlink:href="#DejaVuSans-48"/>
      <use x="1156.689453" xlink:href="#DejaVuSans-48"/>
      <use x="1220.3125" xlink:href="#DejaVuSans-107"/>
     </g>
    </g>
   </g>
   <g id="line2d_24">
    <path clip-path="url(#p5cd2ede613)" d="M 91.096329 242.116364 
L 98.818028 242.011673 
L 100.748453 241.94188 
L 102.035403 241.924431 
L 102.678878 241.802293 
L 103.965827 241.784844 
L 106.539727 241.261393 
L 107.183202 241.278841 
L 110.400577 239.830626 
L 111.044052 239.656142 
L 111.687526 239.272277 
L 112.331001 239.324622 
L 112.974476 239.097793 
L 113.617951 239.254829 
L 114.261426 239.045448 
L 115.548376 239.010552 
L 116.191851 239.219932 
L 116.835326 239.150139 
L 118.122276 239.324622 
L 118.765751 239.481658 
L 120.0527 239.446761 
L 120.696175 239.446761 
L 121.983125 239.656142 
L 123.270075 239.77828 
L 125.2005 239.935316 
L 125.843975 239.77828 
L 127.130924 239.795729 
L 127.774399 239.691038 
L 130.991774 239.848074 
L 131.635249 239.743384 
L 132.922199 239.935316 
L 134.852623 239.342071 
L 136.139573 239.219932 
L 137.426523 238.870964 
L 138.713473 239.045448 
L 141.287373 239.446761 
L 141.930848 239.77828 
L 142.574323 239.743384 
L 143.217797 239.952764 
L 143.861272 239.848074 
L 144.504747 240.127248 
L 145.148222 240.21449 
L 145.791697 240.493664 
L 146.435172 240.31918 
L 147.078647 240.563458 
L 148.365597 240.703045 
L 149.009072 240.528561 
L 149.652547 240.528561 
L 152.226446 239.935316 
L 152.869921 240.005109 
L 153.513396 239.830626 
L 154.156871 239.446761 
L 154.800346 239.23738 
L 155.443821 238.766274 
L 156.730771 238.05089 
L 157.374246 237.981097 
L 158.017721 237.527439 
L 158.661195 237.370404 
L 159.30467 236.969091 
L 159.948145 237.178471 
L 160.59162 236.777159 
L 161.235095 235.712807 
L 161.87857 235.398736 
L 162.522045 235.398736 
L 163.16552 234.997424 
L 163.808995 235.381288 
L 164.45247 234.421627 
L 165.095945 234.526317 
L 165.73942 234.997424 
L 166.382894 234.857836 
L 167.026369 234.92763 
L 167.669844 233.74114 
L 168.313319 233.671346 
L 169.600269 233.880727 
L 170.243744 233.967969 
L 171.530694 231.839266 
L 172.174169 232.44996 
L 172.817644 231.315815 
L 173.461119 230.949399 
L 174.104594 230.862157 
L 174.748068 230.530638 
L 175.391543 231.158779 
L 176.035018 230.862157 
L 176.678493 231.141331 
L 177.321968 230.809812 
L 177.965443 230.687673 
L 178.608918 229.710564 
L 179.895868 228.785799 
L 182.469767 227.843587 
L 183.113242 227.948277 
L 183.756717 227.791241 
L 184.400192 228.489177 
L 185.043667 228.977731 
L 185.687142 228.34959 
L 186.974092 229.239457 
L 187.617567 229.030077 
L 188.261042 229.344148 
L 188.904517 228.122761 
L 189.547992 227.930829 
L 190.191466 228.297245 
L 190.834941 228.384486 
L 191.478416 228.332141 
L 192.121891 228.681109 
L 192.765366 228.628764 
L 194.052316 229.797805 
L 195.339266 229.152215 
L 195.982741 229.256906 
L 196.626216 229.74546 
L 197.269691 229.815254 
L 197.913165 230.007186 
L 198.55664 229.919944 
L 199.200115 230.548086 
L 199.84359 230.251463 
L 201.13054 230.460844 
L 202.41749 231.141331 
L 203.060965 231.123883 
L 203.70444 231.350712 
L 204.347915 232.11844 
L 204.99139 232.205682 
L 205.634865 231.996302 
L 206.278339 231.926508 
L 206.921814 232.135889 
L 207.565289 232.65934 
L 208.208764 232.467408 
L 208.852239 232.764031 
L 209.495714 232.572098 
L 210.139189 232.955963 
L 210.782664 232.955963 
L 211.426139 233.20024 
L 212.069614 232.781479 
L 212.713089 233.043205 
L 213.356564 232.868721 
L 214.000038 233.30493 
L 214.643513 233.444517 
L 215.286988 233.863279 
L 215.930463 233.915624 
L 216.573938 234.404178 
L 217.217413 234.526317 
L 217.860888 234.439075 
L 219.147838 234.456524 
L 219.791313 234.38673 
L 220.434788 233.950521 
L 221.078263 233.793485 
L 221.721737 233.461966 
L 222.365212 233.584105 
L 223.008687 233.461966 
L 223.652162 233.182792 
L 224.295637 232.310373 
L 224.939112 232.327821 
L 225.582587 231.47285 
L 226.226062 230.425947 
L 226.869537 230.408499 
L 227.513012 230.18167 
L 228.799962 230.443396 
L 229.443436 230.059531 
L 230.086911 230.321257 
L 230.730386 231.176228 
L 231.373861 230.705121 
L 232.017336 230.582983 
L 232.660811 229.937393 
L 233.304286 230.007186 
L 233.947761 229.74546 
L 234.591236 228.785799 
L 235.234711 228.175106 
L 235.878186 227.861035 
L 236.521661 227.389929 
L 237.165135 227.843587 
L 237.80861 227.686551 
L 238.452085 227.1631 
L 239.09556 227.843587 
L 240.38251 227.983174 
L 241.025985 228.698557 
L 242.312935 228.157658 
L 242.95641 228.628764 
L 243.599885 228.593867 
L 244.24336 227.878483 
L 244.886835 227.791241 
L 245.530309 226.936271 
L 246.173784 226.430268 
L 246.817259 226.325577 
L 247.460734 225.749781 
L 248.104209 224.580739 
L 248.747684 224.196875 
L 250.034634 222.504382 
L 250.678109 221.282995 
L 251.321584 220.602508 
L 251.965059 219.538156 
L 252.608534 218.212079 
L 253.252008 217.182625 
L 253.895483 214.547919 
L 254.538958 212.401768 
L 255.182433 211.529349 
L 257.112858 206.416973 
L 257.756333 204.707031 
L 258.399808 204.113786 
L 259.043283 204.096338 
L 259.686758 203.74737 
L 260.330233 202.752812 
L 260.973707 201.339493 
L 261.617182 200.781145 
L 262.260657 199.332929 
L 262.904132 196.907604 
L 263.547607 193.121305 
L 264.191082 190.765773 
L 265.478032 189.910803 
L 266.121507 188.148516 
L 266.764982 190.957706 
L 267.408457 189.893354 
L 268.051932 189.230316 
L 269.338881 187.049268 
L 269.982356 184.780978 
L 270.625831 187.223752 
L 271.269306 179.424325 
L 271.912781 178.656596 
L 272.556256 180.802747 
L 273.199731 180.959782 
L 273.843206 180.488676 
L 274.486681 182.407998 
L 275.130156 179.808189 
L 275.773631 183.053588 
L 276.417106 185.40912 
L 277.06058 186.822439 
L 277.704055 187.520374 
L 278.34753 188.8639 
L 278.991005 187.049268 
L 280.277955 189.666525 
L 281.564905 188.480035 
L 282.20838 189.893354 
L 282.851855 188.933693 
L 284.138805 195.511734 
L 284.782279 197.657885 
L 285.425754 203.503093 
L 286.069229 201.897842 
L 286.712704 204.148683 
L 287.356179 205.666692 
L 287.999654 205.003654 
L 288.643129 200.118107 
L 289.930079 194.831247 
L 290.573554 194.778901 
L 291.217029 193.836689 
L 291.860504 193.365582 
L 292.503978 195.180214 
L 293.147453 199.821484 
L 293.790928 197.971955 
L 294.434403 194.080966 
L 295.077878 195.197663 
L 295.721353 194.046069 
L 296.364828 193.17365 
L 297.008303 189.71887 
L 297.651778 187.991481 
L 298.295253 192.179092 
L 298.938728 195.215111 
L 299.582203 197.657885 
L 300.225677 199.298033 
L 301.512627 206.451869 
L 302.156102 208.266501 
L 302.799577 209.365749 
L 303.443052 211.459555 
L 304.730002 214.129158 
L 305.373477 213.23929 
L 306.016952 213.047358 
L 306.660427 213.692948 
L 307.303902 213.221842 
L 307.947377 213.640603 
L 308.590851 217.008141 
L 309.234326 213.832535 
L 309.877801 214.792196 
L 310.521276 215.280751 
L 311.164751 215.298199 
L 311.808226 216.065928 
L 312.451701 216.554483 
L 313.095176 214.303642 
L 313.738651 218.212079 
L 315.669076 219.887124 
L 316.31255 221.788998 
L 317.5995 223.446594 
L 318.88645 224.720326 
L 320.1734 226.569855 
L 320.816875 226.674545 
L 321.46035 226.290681 
L 322.103825 227.128203 
L 322.7473 226.308129 
L 323.390775 225.749781 
L 324.677724 225.173984 
L 325.321199 226.0813 
L 325.964674 226.72689 
L 326.608149 225.697436 
L 327.251624 225.959161 
L 327.895099 227.686551 
L 328.538574 228.419383 
L 329.182049 229.518631 
L 329.825524 229.797805 
L 330.468999 231.193676 
L 331.112474 231.752024 
L 331.755948 231.839266 
L 332.399423 230.652776 
L 333.042898 230.460844 
L 333.686373 230.687673 
L 334.329848 229.431389 
L 334.973323 228.733454 
L 336.260273 228.750903 
L 336.903748 229.972289 
L 337.547223 230.373602 
L 338.190698 230.338705 
L 338.834173 230.670225 
L 339.477648 230.792363 
L 340.764597 230.72257 
L 342.051547 229.623322 
L 342.695022 228.907938 
L 343.338497 228.524074 
L 343.981972 227.965725 
L 345.912397 227.459722 
L 346.555872 227.040961 
L 347.199347 226.482613 
L 347.842821 226.482613 
L 348.486296 225.906816 
L 349.129771 224.807568 
L 349.773246 224.598187 
L 350.416721 223.778113 
L 351.060196 223.70832 
L 351.703671 222.783556 
L 352.347146 222.469485 
L 352.990621 220.811888 
L 353.634096 220.340782 
L 354.277571 220.14885 
L 354.921046 220.131401 
L 355.56452 218.020147 
L 356.207995 217.67118 
L 356.85147 216.292757 
L 357.494945 216.013583 
L 358.13842 215.210958 
L 358.781895 214.094261 
L 359.42537 213.989571 
L 360.068845 212.977565 
L 361.355795 210.098581 
L 361.99927 210.028788 
L 363.929694 207.394082 
L 364.573169 207.708153 
L 365.216644 208.318846 
L 366.503594 208.475882 
L 367.147069 208.755056 
L 367.790544 209.557682 
L 368.434019 209.191266 
L 369.077494 209.610027 
L 369.720969 210.604585 
L 370.364444 211.232726 
L 371.007919 211.477004 
L 372.938343 213.727845 
L 373.581818 215.210958 
L 373.581818 215.210958 
" style="fill:none;stroke:#1f77b4;stroke-linecap:square;stroke-width:1.5;"/>
   </g>
   <g id="line2d_25">
    <path clip-path="url(#p5cd2ede613)" d="M 69.218182 242.116364 
L 98.818028 242.029122 
L 103.322352 241.680154 
L 105.252777 241.383532 
L 107.183202 240.912425 
L 107.826677 240.668148 
L 109.113627 239.830626 
L 110.400577 239.289726 
L 112.974476 237.614681 
L 114.904901 236.515433 
L 117.478801 236.445639 
L 118.765751 236.672468 
L 119.409225 236.986539 
L 120.0527 237.091229 
L 120.696175 236.934194 
L 121.983125 237.108678 
L 122.6266 237.056333 
L 123.270075 236.812055 
L 123.91355 236.934194 
L 124.557025 236.11412 
L 125.2005 235.747704 
L 125.843975 235.520875 
L 126.48745 234.92763 
L 127.130924 234.561214 
L 127.774399 234.700801 
L 128.417874 234.456524 
L 129.704824 235.346391 
L 130.348299 234.962527 
L 130.991774 235.224252 
L 131.635249 235.206804 
L 132.922199 234.945078 
L 133.565674 235.102114 
L 134.209149 234.369282 
L 134.852623 234.613559 
L 135.496098 234.543766 
L 136.139573 234.351833 
L 136.783048 233.863279 
L 137.426523 233.933072 
L 138.069998 233.793485 
L 138.713473 234.351833 
L 140.000423 234.247143 
L 140.643898 234.299488 
L 141.287373 234.473972 
L 143.861272 233.967969 
L 144.504747 233.566656 
L 146.435172 233.043205 
L 147.722122 232.066095 
L 149.009072 232.292924 
L 149.652547 231.874163 
L 150.939496 230.530638 
L 151.582971 230.373602 
L 152.226446 230.670225 
L 154.156871 229.832702 
L 154.800346 230.094428 
L 156.087296 230.356154 
L 157.374246 229.675667 
L 158.017721 228.99518 
L 158.661195 229.012628 
L 159.30467 228.681109 
L 159.948145 228.89049 
L 161.235095 228.314693 
L 161.87857 227.459722 
L 163.16552 227.250342 
L 163.808995 226.709442 
L 164.45247 225.802126 
L 165.73942 221.98093 
L 166.382894 221.614514 
L 167.669844 219.293879 
L 168.313319 219.032153 
L 170.243744 216.188067 
L 172.174169 211.040794 
L 172.817644 208.231604 
L 173.461119 207.655808 
L 174.104594 208.126914 
L 174.748068 207.027666 
L 175.391543 206.451869 
L 176.035018 207.219598 
L 176.678493 207.289392 
L 177.321968 207.516221 
L 177.965443 206.731044 
L 178.608918 205.317725 
L 179.895868 204.776825 
L 181.182818 202.107222 
L 181.826293 202.264258 
L 182.469767 201.880393 
L 183.113242 201.740806 
L 183.756717 201.880393 
L 184.400192 199.821484 
L 185.043667 198.949065 
L 185.687142 199.1061 
L 186.330617 197.867265 
L 186.974092 199.298033 
L 187.617567 199.908726 
L 188.261042 201.37439 
L 188.904517 202.054877 
L 189.547992 203.572886 
L 190.191466 204.776825 
L 190.834941 206.678698 
L 191.478416 206.416973 
L 192.121891 207.341737 
L 192.765366 209.121472 
L 193.408841 212.628597 
L 194.052316 212.628597 
L 194.695791 213.186945 
L 195.982741 212.279629 
L 196.626216 209.295956 
L 197.269691 205.003654 
L 197.913165 202.805157 
L 198.55664 202.874951 
L 199.200115 201.042871 
L 199.84359 200.589213 
L 200.487065 200.938181 
L 201.13054 203.817164 
L 201.774015 207.777947 
L 202.41749 209.540233 
L 203.060965 210.447549 
L 204.347915 214.774748 
L 204.99139 215.978686 
L 205.634865 216.100825 
L 206.278339 215.734409 
L 206.921814 216.327654 
L 208.852239 218.665737 
L 210.139189 219.206637 
L 210.782664 220.480369 
L 212.069614 220.393127 
L 212.713089 220.480369 
L 213.356564 220.305885 
L 214.000038 220.89913 
L 214.643513 223.097627 
L 215.286988 223.516388 
L 215.930463 224.982052 
L 216.573938 225.959161 
L 217.217413 226.709442 
L 217.860888 227.285238 
L 218.504363 227.512067 
L 219.147838 226.744339 
L 219.791313 227.093306 
L 220.434788 226.901374 
L 221.078263 227.023513 
L 221.721737 226.779235 
L 223.008687 226.534958 
L 223.652162 226.255784 
L 224.939112 226.325577 
L 226.869537 226.883926 
L 227.513012 227.215445 
L 228.156487 227.878483 
L 228.799962 227.686551 
L 231.373861 228.052967 
L 232.017336 227.651654 
L 232.660811 227.651654 
L 233.304286 228.000622 
L 233.947761 227.861035 
L 234.591236 227.564412 
L 237.165135 228.087864 
L 237.80861 227.424825 
L 238.452085 227.37248 
L 239.09556 227.616758 
L 239.739035 227.686551 
L 240.38251 228.262348 
L 241.025985 228.663661 
L 241.66946 227.791241 
L 242.312935 227.302687 
L 242.95641 227.564412 
L 243.599885 225.679987 
L 244.886835 222.940591 
L 245.530309 222.591623 
L 246.173784 222.539278 
L 246.817259 222.225207 
L 247.460734 221.597066 
L 248.104209 222.888246 
L 249.391159 224.074736 
L 250.678109 222.905694 
L 251.321584 222.713762 
L 251.965059 221.963482 
L 253.252008 219.555605 
L 253.895483 218.42146 
L 254.538958 216.903451 
L 255.182433 215.961238 
L 255.825908 213.762742 
L 256.469383 213.815087 
L 257.756333 209.662372 
L 259.043283 206.068005 
L 259.686758 203.154125 
L 260.330233 201.897842 
L 260.973707 197.937059 
L 262.260657 193.313237 
L 262.904132 189.858458 
L 263.547607 189.963148 
L 264.834557 182.250963 
L 265.478032 180.523573 
L 266.121507 183.158279 
L 266.764982 181.134266 
L 267.408457 181.273853 
L 268.051932 178.49956 
L 268.695406 178.569354 
L 269.338881 178.482112 
L 269.982356 175.952097 
L 270.625831 167.838599 
L 271.269306 163.214777 
L 271.912781 155.781766 
L 272.556256 145.940878 
L 273.843206 133.884046 
L 275.773631 109.613346 
L 276.417106 108.548994 
L 277.06058 104.134553 
L 277.704055 102.250128 
L 278.34753 97.242442 
L 278.991005 78.851847 
L 280.92143 57.861443 
L 281.564905 53.394657 
L 282.20838 45.15902 
L 282.851855 44.443636 
L 283.49533 54.65094 
L 284.138805 61.333671 
L 284.782279 81.18993 
L 285.425754 63.758996 
L 286.069229 67.109085 
L 286.712704 68.086195 
L 287.356179 68.836475 
L 287.999654 76.635902 
L 288.643129 78.188808 
L 289.286604 64.823347 
L 289.930079 72.901948 
L 290.573554 73.931403 
L 291.217029 74.559545 
L 291.860504 72.605326 
L 292.503978 69.743791 
L 293.147453 64.596518 
L 293.790928 56.395778 
L 294.434403 59.519039 
L 295.077878 55.418669 
L 295.721353 55.488463 
L 296.364828 50.044567 
L 297.008303 47.043445 
L 297.651778 46.868962 
L 298.295253 54.354318 
L 299.582203 67.318466 
L 300.225677 76.915077 
L 300.869152 81.207379 
L 301.512627 95.305672 
L 303.443052 122.909013 
L 304.086527 129.155534 
L 304.730002 128.195873 
L 305.373477 139.223251 
L 306.016952 139.659461 
L 307.303902 146.760952 
L 307.947377 150.198284 
L 308.590851 155.031486 
L 309.877801 166.442728 
L 310.521276 170.263924 
L 311.808226 176.999 
L 312.451701 180.76785 
L 313.738651 185.653397 
L 314.382126 187.13651 
L 316.31255 195.040627 
L 316.956025 196.558636 
L 317.5995 199.245687 
L 318.242975 204.672134 
L 318.88645 205.753934 
L 319.529925 207.219598 
L 320.1734 208.964437 
L 320.816875 209.993891 
L 321.46035 211.94811 
L 322.103825 212.768184 
L 322.7473 212.785632 
L 323.390775 214.390884 
L 324.034249 214.652609 
L 324.677724 216.04848 
L 325.321199 216.676622 
L 325.964674 217.723525 
L 326.608149 218.438908 
L 327.251624 218.944911 
L 327.895099 220.166298 
L 328.538574 221.073614 
L 329.182049 221.317891 
L 329.825524 222.469485 
L 330.468999 222.556727 
L 331.112474 223.027833 
L 332.399423 223.16742 
L 333.042898 223.743217 
L 333.686373 224.825016 
L 334.329848 226.552406 
L 335.616798 227.215445 
L 336.260273 227.983174 
L 336.903748 229.274354 
L 338.190698 229.344148 
L 338.834173 228.768351 
L 339.477648 229.74546 
L 340.121122 229.937393 
L 340.764597 229.972289 
L 341.408072 229.693115 
L 342.051547 230.07698 
L 342.695022 230.757467 
L 343.338497 230.652776 
L 343.981972 230.705121 
L 345.268922 230.460844 
L 347.199347 230.600431 
L 347.842821 230.356154 
L 348.486296 229.867599 
L 349.129771 230.216567 
L 350.416721 230.251463 
L 352.990621 230.408499 
L 353.634096 228.977731 
L 354.921046 228.524074 
L 355.56452 228.471728 
L 356.207995 228.611315 
L 357.494945 229.588425 
L 358.13842 231.036641 
L 358.781895 231.629886 
L 359.42537 231.699679 
L 360.068845 232.066095 
L 360.71232 231.943957 
L 361.355795 232.310373 
L 361.99927 232.310373 
L 362.642745 232.502305 
L 363.286219 232.415063 
L 363.929694 232.676789 
L 364.573169 232.798927 
L 365.216644 233.63645 
L 365.860119 233.566656 
L 366.503594 233.793485 
L 367.147069 233.776037 
L 367.790544 234.055211 
L 369.077494 234.055211 
L 369.720969 233.322379 
L 372.294868 233.915624 
L 372.938343 234.299488 
L 373.581818 234.334385 
L 373.581818 234.334385 
" style="fill:none;stroke:#ff7f0e;stroke-linecap:square;stroke-width:1.5;"/>
   </g>
   <g id="line2d_26">
    <path clip-path="url(#p5cd2ede613)" d="M 80.80073 242.116364 
L 102.678878 242.04657 
L 104.609302 241.83719 
L 105.896252 241.627809 
L 107.183202 241.470773 
L 108.470152 240.999667 
L 111.687526 239.760832 
L 112.331001 239.307174 
L 112.974476 239.185035 
L 114.261426 238.521997 
L 114.904901 238.330065 
L 115.548376 237.73682 
L 116.191851 237.492542 
L 116.835326 237.387852 
L 117.478801 236.602675 
L 119.409225 236.393294 
L 120.0527 236.672468 
L 121.33965 236.777159 
L 121.983125 237.335507 
L 122.6266 237.091229 
L 124.557025 237.352955 
L 126.48745 237.143575 
L 127.130924 237.370404 
L 127.774399 237.335507 
L 129.061349 237.021436 
L 129.704824 237.021436 
L 130.348299 236.899297 
L 132.278724 236.149017 
L 135.496098 235.57322 
L 136.139573 235.590669 
L 136.783048 235.747704 
L 137.426523 235.46853 
L 138.713473 235.189356 
L 139.356948 234.910182 
L 140.000423 234.82294 
L 140.643898 234.334385 
L 141.287373 234.369282 
L 141.930848 234.561214 
L 143.217797 234.613559 
L 144.504747 234.997424 
L 145.148222 235.765152 
L 145.791697 235.590669 
L 146.435172 235.904739 
L 147.078647 236.358397 
L 147.722122 236.532881 
L 148.365597 236.323501 
L 149.009072 235.765152 
L 150.296022 235.294046 
L 150.939496 234.439075 
L 152.226446 233.182792 
L 153.513396 233.078101 
L 154.156871 232.44996 
L 154.800346 232.066095 
L 155.443821 232.676789 
L 156.087296 232.44996 
L 156.730771 232.397614 
L 157.374246 231.612437 
L 158.661195 231.193676 
L 159.30467 230.897054 
L 159.948145 230.425947 
L 160.59162 229.74546 
L 161.235095 227.756345 
L 162.522045 225.871919 
L 163.808995 221.928585 
L 164.45247 220.323334 
L 165.095945 218.107389 
L 165.73942 217.392005 
L 166.382894 214.739851 
L 167.026369 212.803081 
L 167.669844 211.808523 
L 168.313319 210.273065 
L 169.600269 208.49333 
L 170.243744 206.033108 
L 170.887219 204.707031 
L 172.174169 201.304597 
L 172.817644 201.653564 
L 173.461119 201.47908 
L 174.104594 198.617546 
L 175.391543 195.44194 
L 176.035018 192.458267 
L 176.678493 190.626186 
L 177.321968 188.323 
L 177.965443 186.525816 
L 178.608918 186.770094 
L 179.252393 185.827881 
L 179.895868 184.205182 
L 180.539343 180.66316 
L 181.182818 180.820195 
L 181.826293 180.418883 
L 182.469767 179.162599 
L 183.113242 180.279295 
L 184.400192 181.867098 
L 185.043667 186.59561 
L 185.687142 188.462587 
L 186.330617 189.212867 
L 186.974092 192.510612 
L 187.617567 193.435376 
L 188.261042 192.894476 
L 188.904517 194.552072 
L 189.547992 193.958827 
L 190.191466 191.027499 
L 190.834941 193.452824 
L 192.121891 189.474593 
L 192.765366 190.312115 
L 193.408841 190.05039 
L 194.695791 194.69166 
L 195.339266 193.644757 
L 195.982741 194.290347 
L 197.913165 199.681897 
L 198.55664 200.240245 
L 199.200115 199.647 
L 199.84359 198.495407 
L 200.487065 196.488843 
L 201.13054 197.518298 
L 201.774015 197.134433 
L 203.060965 199.908726 
L 203.70444 202.805157 
L 204.347915 204.445305 
L 204.99139 208.859746 
L 205.634865 208.964437 
L 206.278339 210.744172 
L 206.921814 210.133478 
L 207.565289 211.389762 
L 208.208764 211.94811 
L 209.495714 212.541355 
L 210.139189 214.007019 
L 210.782664 214.7573 
L 211.426139 216.327654 
L 212.069614 216.606828 
L 212.713089 216.065928 
L 213.356564 216.833657 
L 214.000038 217.374557 
L 214.643513 219.852227 
L 215.286988 220.724646 
L 215.930463 220.35823 
L 216.573938 221.003821 
L 217.217413 221.056166 
L 217.860888 222.62652 
L 218.504363 220.968924 
L 219.147838 217.758421 
L 219.791313 215.40289 
L 220.434788 215.559925 
L 221.078263 214.146606 
L 221.721737 216.013583 
L 222.365212 215.472683 
L 223.008687 214.164055 
L 223.652162 214.129158 
L 224.295637 216.763864 
L 224.939112 216.79876 
L 225.582587 216.362551 
L 226.226062 216.327654 
L 226.869537 216.58938 
L 227.513012 216.240412 
L 228.156487 217.23497 
L 228.799962 215.053922 
L 229.443436 215.926341 
L 230.086911 216.58938 
L 231.373861 212.227284 
L 232.017336 214.687506 
L 232.660811 213.867432 
L 233.304286 215.769306 
L 233.947761 213.623155 
L 234.591236 213.169497 
L 235.234711 214.373435 
L 235.878186 216.031032 
L 237.165135 216.100825 
L 237.80861 215.367993 
L 238.452085 215.472683 
L 239.739035 213.466119 
L 240.38251 212.680942 
L 241.025985 210.639481 
L 241.66946 210.081133 
L 242.312935 209.767062 
L 242.95641 209.226162 
L 243.599885 209.67982 
L 244.24336 207.882637 
L 244.886835 205.439863 
L 245.530309 206.678698 
L 246.173784 205.021102 
L 247.460734 202.717916 
L 248.104209 201.16501 
L 248.747684 202.01998 
L 249.391159 201.897842 
L 250.034634 201.548874 
L 251.321584 199.298033 
L 251.965059 196.837811 
L 252.608534 195.232559 
L 253.252008 192.353576 
L 253.895483 193.644757 
L 254.538958 191.411364 
L 255.182433 189.858458 
L 255.825908 187.171407 
L 256.469383 185.252085 
L 257.112858 184.606494 
L 257.756333 182.39055 
L 258.399808 179.110254 
L 259.043283 178.743838 
L 259.686758 177.452657 
L 260.330233 178.098248 
L 260.973707 177.784177 
L 261.617182 174.2945 
L 263.547607 171.328275 
L 264.191082 171.398069 
L 264.834557 163.214777 
L 265.478032 161.749113 
L 266.764982 177.435209 
L 267.408457 181.622821 
L 268.695406 174.974987 
L 269.338881 181.047024 
L 269.982356 177.923764 
L 270.625831 166.390383 
L 271.269306 158.346678 
L 271.912781 153.897341 
L 272.556256 156.462253 
L 273.199731 156.811221 
L 273.843206 156.340114 
L 274.486681 159.184201 
L 275.130156 163.284571 
L 275.773631 164.314025 
L 276.417106 164.122093 
L 277.06058 166.809144 
L 277.704055 167.681563 
L 278.34753 162.045736 
L 278.991005 155.345557 
L 280.277955 147.563578 
L 280.92143 145.81874 
L 281.564905 144.84163 
L 282.851855 139.868841 
L 283.49533 140.968089 
L 284.138805 148.872207 
L 284.782279 163.738229 
L 285.425754 170.333717 
L 286.069229 157.596398 
L 286.712704 154.560379 
L 287.356179 153.129612 
L 287.999654 154.176515 
L 288.643129 146.56902 
L 289.286604 141.648576 
L 289.930079 134.651775 
L 290.573554 140.20036 
L 291.217029 137.932071 
L 291.860504 131.755343 
L 293.147453 121.774868 
L 293.790928 107.903404 
L 294.434403 104.60566 
L 295.077878 106.472637 
L 295.721353 105.914289 
L 296.364828 109.299275 
L 297.008303 111.044113 
L 297.651778 104.762695 
L 298.938728 103.680896 
L 299.582203 105.024421 
L 300.225677 115.790073 
L 300.869152 120.239411 
L 301.512627 116.191386 
L 302.156102 123.432465 
L 302.799577 128.841463 
L 304.086527 136.710684 
L 304.730002 128.806567 
L 305.373477 129.888366 
L 306.016952 136.989858 
L 306.660427 138.856835 
L 307.303902 138.315935 
L 307.947377 138.385729 
L 308.590851 134.442394 
L 309.877801 139.380286 
L 310.521276 141.160022 
L 311.164751 146.883091 
L 312.451701 156.671634 
L 313.095176 161.557181 
L 313.738651 163.668435 
L 315.025601 172.165798 
L 315.669076 173.614013 
L 316.31255 175.446093 
L 316.956025 175.864855 
L 317.5995 178.447215 
L 318.242975 185.321878 
L 320.1734 209.156369 
L 320.816875 214.600264 
L 321.46035 216.763864 
L 322.103825 215.141164 
L 322.7473 211.354865 
L 323.390775 205.649244 
L 324.034249 202.979641 
L 325.321199 194.028621 
L 325.964674 194.115863 
L 326.608149 196.506291 
L 327.251624 195.825804 
L 327.895099 198.425613 
L 328.538574 198.477959 
L 329.182049 198.669891 
L 329.825524 203.258815 
L 330.468999 204.846618 
L 331.112474 205.509657 
L 331.755948 209.086575 
L 332.399423 210.65693 
L 333.042898 212.576252 
L 333.686373 213.78019 
L 334.329848 214.076813 
L 334.973323 214.687506 
L 335.616798 214.809645 
L 336.260273 214.2164 
L 336.903748 213.815087 
L 337.547223 214.513022 
L 338.190698 216.886002 
L 338.834173 218.002699 
L 340.121122 218.683186 
L 341.408072 221.021269 
L 342.051547 221.649411 
L 343.338497 221.649411 
L 344.625447 220.375679 
L 345.268922 219.224086 
L 345.912397 220.14885 
L 346.555872 219.869676 
L 347.199347 219.869676 
L 347.842821 221.527272 
L 348.486296 222.748659 
L 349.129771 224.441152 
L 349.773246 224.092184 
L 350.416721 223.481491 
L 351.060196 223.655975 
L 351.703671 222.923143 
L 352.347146 221.87624 
L 352.990621 221.195753 
L 354.277571 220.305885 
L 354.921046 219.747537 
L 355.56452 220.026711 
L 356.207995 221.056166 
L 356.85147 221.248098 
L 357.494945 221.788998 
L 358.13842 221.823895 
L 358.781895 222.504382 
L 359.42537 222.696314 
L 360.068845 222.190311 
L 360.71232 221.87624 
L 361.355795 222.207759 
L 362.642745 222.015827 
L 363.286219 222.295001 
L 363.929694 223.045281 
L 364.573169 223.06273 
L 365.216644 222.905694 
L 365.860119 222.207759 
L 366.503594 222.190311 
L 367.790544 222.609072 
L 368.434019 223.481491 
L 369.077494 225.086742 
L 369.720969 226.168542 
L 371.007919 227.023513 
L 371.651393 226.971167 
L 372.294868 228.384486 
L 373.581818 228.035519 
L 373.581818 228.035519 
" style="fill:none;stroke:#2ca02c;stroke-linecap:square;stroke-width:1.5;"/>
   </g>
   <g id="patch_3">
    <path d="M 54 252 
L 54 34.56 
" style="fill:none;stroke:#000000;stroke-linecap:square;stroke-linejoin:miter;stroke-width:0.8;"/>
   </g>
   <g id="patch_4">
    <path d="M 54 252 
L 388.8 252 
" style="fill:none;stroke:#000000;stroke-linecap:square;stroke-linejoin:miter;stroke-width:0.8;"/>
   </g>
   <g id="legend_1">
    <g id="patch_5">
     <path d="M 61 86.594375 
L 140.485938 86.594375 
Q 142.485938 86.594375 142.485938 84.594375 
L 142.485938 41.56 
Q 142.485938 39.56 140.485938 39.56 
L 61 39.56 
Q 59 39.56 59 41.56 
L 59 84.594375 
Q 59 86.594375 61 86.594375 
z
" style="fill:#ffffff;opacity:0.8;stroke:#cccccc;stroke-linejoin:miter;"/>
    </g>
    <g id="line2d_27">
     <path d="M 63 47.658438 
L 83 47.658438 
" style="fill:none;stroke:#1f77b4;stroke-linecap:square;stroke-width:1.5;"/>
    </g>
    <g id="line2d_28"/>
    <g id="text_26">
     <!-- Oregon -->
     <g transform="translate(91 51.158438)scale(0.1 -0.1)">
      <defs>
       <path d="M 39.40625 66.21875 
Q 28.65625 66.21875 22.328125 58.203125 
Q 16.015625 50.203125 16.015625 36.375 
Q 16.015625 22.609375 22.328125 14.59375 
Q 28.65625 6.59375 39.40625 6.59375 
Q 50.140625 6.59375 56.421875 14.59375 
Q 62.703125 22.609375 62.703125 36.375 
Q 62.703125 50.203125 56.421875 58.203125 
Q 50.140625 66.21875 39.40625 66.21875 
z
M 39.40625 74.21875 
Q 54.734375 74.21875 63.90625 63.9375 
Q 73.09375 53.65625 73.09375 36.375 
Q 73.09375 19.140625 63.90625 8.859375 
Q 54.734375 -1.421875 39.40625 -1.421875 
Q 24.03125 -1.421875 14.8125 8.828125 
Q 5.609375 19.09375 5.609375 36.375 
Q 5.609375 53.65625 14.8125 63.9375 
Q 24.03125 74.21875 39.40625 74.21875 
z
" id="DejaVuSans-79"/>
       <path d="M 45.40625 27.984375 
Q 45.40625 37.75 41.375 43.109375 
Q 37.359375 48.484375 30.078125 48.484375 
Q 22.859375 48.484375 18.828125 43.109375 
Q 14.796875 37.75 14.796875 27.984375 
Q 14.796875 18.265625 18.828125 12.890625 
Q 22.859375 7.515625 30.078125 7.515625 
Q 37.359375 7.515625 41.375 12.890625 
Q 45.40625 18.265625 45.40625 27.984375 
z
M 54.390625 6.78125 
Q 54.390625 -7.171875 48.1875 -13.984375 
Q 42 -20.796875 29.203125 -20.796875 
Q 24.46875 -20.796875 20.265625 -20.09375 
Q 16.0625 -19.390625 12.109375 -17.921875 
L 12.109375 -9.1875 
Q 16.0625 -11.328125 19.921875 -12.34375 
Q 23.78125 -13.375 27.78125 -13.375 
Q 36.625 -13.375 41.015625 -8.765625 
Q 45.40625 -4.15625 45.40625 5.171875 
L 45.40625 9.625 
Q 42.625 4.78125 38.28125 2.390625 
Q 33.9375 0 27.875 0 
Q 17.828125 0 11.671875 7.65625 
Q 5.515625 15.328125 5.515625 27.984375 
Q 5.515625 40.671875 11.671875 48.328125 
Q 17.828125 56 27.875 56 
Q 33.9375 56 38.28125 53.609375 
Q 42.625 51.21875 45.40625 46.390625 
L 45.40625 54.6875 
L 54.390625 54.6875 
z
" id="DejaVuSans-103"/>
      </defs>
      <use xlink:href="#DejaVuSans-79"/>
      <use x="78.710938" xlink:href="#DejaVuSans-114"/>
      <use x="117.574219" xlink:href="#DejaVuSans-101"/>
      <use x="179.097656" xlink:href="#DejaVuSans-103"/>
      <use x="242.574219" xlink:href="#DejaVuSans-111"/>
      <use x="303.755859" xlink:href="#DejaVuSans-110"/>
     </g>
    </g>
    <g id="line2d_29">
     <path d="M 63 62.336563 
L 83 62.336563 
" style="fill:none;stroke:#ff7f0e;stroke-linecap:square;stroke-width:1.5;"/>
    </g>
    <g id="line2d_30"/>
    <g id="text_27">
     <!-- California -->
     <g transform="translate(91 65.836563)scale(0.1 -0.1)">
      <defs>
       <path d="M 9.421875 75.984375 
L 18.40625 75.984375 
L 18.40625 0 
L 9.421875 0 
z
" id="DejaVuSans-108"/>
      </defs>
      <use xlink:href="#DejaVuSans-67"/>
      <use x="69.824219" xlink:href="#DejaVuSans-97"/>
      <use x="131.103516" xlink:href="#DejaVuSans-108"/>
      <use x="158.886719" xlink:href="#DejaVuSans-105"/>
      <use x="186.669922" xlink:href="#DejaVuSans-102"/>
      <use x="221.875" xlink:href="#DejaVuSans-111"/>
      <use x="283.056641" xlink:href="#DejaVuSans-114"/>
      <use x="322.419922" xlink:href="#DejaVuSans-110"/>
      <use x="385.798828" xlink:href="#DejaVuSans-105"/>
      <use x="413.582031" xlink:href="#DejaVuSans-97"/>
     </g>
    </g>
    <g id="line2d_31">
     <path d="M 63 77.014688 
L 83 77.014688 
" style="fill:none;stroke:#2ca02c;stroke-linecap:square;stroke-width:1.5;"/>
    </g>
    <g id="line2d_32"/>
    <g id="text_28">
     <!-- Texas -->
     <g transform="translate(91 80.514688)scale(0.1 -0.1)">
      <defs>
       <path d="M -0.296875 72.90625 
L 61.375 72.90625 
L 61.375 64.59375 
L 35.5 64.59375 
L 35.5 0 
L 25.59375 0 
L 25.59375 64.59375 
L -0.296875 64.59375 
z
" id="DejaVuSans-84"/>
       <path d="M 54.890625 54.6875 
L 35.109375 28.078125 
L 55.90625 0 
L 45.3125 0 
L 29.390625 21.484375 
L 13.484375 0 
L 2.875 0 
L 24.125 28.609375 
L 4.6875 54.6875 
L 15.28125 54.6875 
L 29.78125 35.203125 
L 44.28125 54.6875 
z
" id="DejaVuSans-120"/>
      </defs>
      <use xlink:href="#DejaVuSans-84"/>
      <use x="44.083984" xlink:href="#DejaVuSans-101"/>
      <use x="103.857422" xlink:href="#DejaVuSans-120"/>
      <use x="163.037109" xlink:href="#DejaVuSans-97"/>
      <use x="224.316406" xlink:href="#DejaVuSans-115"/>
     </g>
    </g>
   </g>
  </g>
 </g>
 <defs>
  <clipPath id="p5cd2ede613">
   <rect height="217.44" width="334.8" x="54" y="34.56"/>
  </clipPath>
 </defs>
</svg>
